<mxfile host="app.diagrams.net" agent="Mozilla/5.0 (Windows NT 10.0; Win64; x64) AppleWebKit/537.36 (KHTML, like Gecko) Chrome/132.0.0.0 Safari/537.36 OPR/117.0.0.0" version="26.0.16">
  <diagram name="1 oldal" id="SWGS1Y7EocCnBRG4nAMQ">
    <mxGraphModel dx="972" dy="512" grid="1" gridSize="10" guides="1" tooltips="1" connect="1" arrows="1" fold="1" page="1" pageScale="1" pageWidth="827" pageHeight="1169" math="0" shadow="0">
      <root>
        <mxCell id="0" />
        <mxCell id="1" parent="0" />
        <mxCell id="RpMsPmkwIsjMrGcKM_-s-1" value="Termék" style="rounded=0;whiteSpace=wrap;html=1;strokeWidth=2;fontStyle=1" vertex="1" parent="1">
          <mxGeometry x="160" y="600" width="80" height="40" as="geometry" />
        </mxCell>
        <mxCell id="RpMsPmkwIsjMrGcKM_-s-21" style="edgeStyle=orthogonalEdgeStyle;rounded=0;orthogonalLoop=1;jettySize=auto;html=1;entryX=1;entryY=0.5;entryDx=0;entryDy=0;endArrow=doubleBlock;endFill=1;" edge="1" parent="1" source="RpMsPmkwIsjMrGcKM_-s-3" target="RpMsPmkwIsjMrGcKM_-s-1">
          <mxGeometry relative="1" as="geometry" />
        </mxCell>
        <mxCell id="RpMsPmkwIsjMrGcKM_-s-3" value="T-GY" style="rhombus;whiteSpace=wrap;html=1;" vertex="1" parent="1">
          <mxGeometry x="350" y="590" width="60" height="60" as="geometry" />
        </mxCell>
        <mxCell id="RpMsPmkwIsjMrGcKM_-s-5" value="" style="endArrow=block;html=1;rounded=0;exitX=1;exitY=0.5;exitDx=0;exitDy=0;entryX=0;entryY=0.5;entryDx=0;entryDy=0;endFill=1;" edge="1" parent="1" source="RpMsPmkwIsjMrGcKM_-s-3">
          <mxGeometry width="50" height="50" relative="1" as="geometry">
            <mxPoint x="450" y="619.5" as="sourcePoint" />
            <mxPoint x="520" y="619.5" as="targetPoint" />
          </mxGeometry>
        </mxCell>
        <mxCell id="RpMsPmkwIsjMrGcKM_-s-6" value="Tkód" style="ellipse;whiteSpace=wrap;html=1;" vertex="1" parent="1">
          <mxGeometry x="90" y="680" width="70" height="40" as="geometry" />
        </mxCell>
        <mxCell id="RpMsPmkwIsjMrGcKM_-s-7" value="név" style="ellipse;whiteSpace=wrap;html=1;" vertex="1" parent="1">
          <mxGeometry x="165" y="680" width="70" height="40" as="geometry" />
        </mxCell>
        <mxCell id="RpMsPmkwIsjMrGcKM_-s-8" value="ear" style="ellipse;whiteSpace=wrap;html=1;" vertex="1" parent="1">
          <mxGeometry x="240" y="680" width="70" height="40" as="geometry" />
        </mxCell>
        <mxCell id="RpMsPmkwIsjMrGcKM_-s-9" value="" style="endArrow=none;html=1;rounded=0;exitX=0.5;exitY=0;exitDx=0;exitDy=0;entryX=0;entryY=0.5;entryDx=0;entryDy=0;" edge="1" parent="1" source="RpMsPmkwIsjMrGcKM_-s-6">
          <mxGeometry width="50" height="50" relative="1" as="geometry">
            <mxPoint x="130" y="640" as="sourcePoint" />
            <mxPoint x="200" y="640" as="targetPoint" />
          </mxGeometry>
        </mxCell>
        <mxCell id="RpMsPmkwIsjMrGcKM_-s-10" value="" style="endArrow=none;html=1;rounded=0;exitX=0.5;exitY=0;exitDx=0;exitDy=0;entryX=0.5;entryY=1;entryDx=0;entryDy=0;" edge="1" parent="1" source="RpMsPmkwIsjMrGcKM_-s-7" target="RpMsPmkwIsjMrGcKM_-s-1">
          <mxGeometry width="50" height="50" relative="1" as="geometry">
            <mxPoint x="132" y="688" as="sourcePoint" />
            <mxPoint x="210" y="650" as="targetPoint" />
          </mxGeometry>
        </mxCell>
        <mxCell id="RpMsPmkwIsjMrGcKM_-s-11" value="" style="endArrow=none;html=1;rounded=0;exitX=0.5;exitY=0;exitDx=0;exitDy=0;" edge="1" parent="1" source="RpMsPmkwIsjMrGcKM_-s-8">
          <mxGeometry width="50" height="50" relative="1" as="geometry">
            <mxPoint x="210" y="690" as="sourcePoint" />
            <mxPoint x="200" y="640" as="targetPoint" />
          </mxGeometry>
        </mxCell>
        <mxCell id="RpMsPmkwIsjMrGcKM_-s-12" value="Gyártó" style="rounded=0;whiteSpace=wrap;html=1;strokeWidth=2;fontStyle=1" vertex="1" parent="1">
          <mxGeometry x="520" y="600" width="80" height="40" as="geometry" />
        </mxCell>
        <mxCell id="RpMsPmkwIsjMrGcKM_-s-14" value="Adószám" style="ellipse;whiteSpace=wrap;html=1;" vertex="1" parent="1">
          <mxGeometry x="410" y="680" width="70" height="40" as="geometry" />
        </mxCell>
        <mxCell id="RpMsPmkwIsjMrGcKM_-s-15" value="név" style="ellipse;whiteSpace=wrap;html=1;" vertex="1" parent="1">
          <mxGeometry x="485" y="680" width="70" height="40" as="geometry" />
        </mxCell>
        <mxCell id="RpMsPmkwIsjMrGcKM_-s-16" value="telephely" style="ellipse;whiteSpace=wrap;html=1;" vertex="1" parent="1">
          <mxGeometry x="560" y="680" width="70" height="40" as="geometry" />
        </mxCell>
        <mxCell id="RpMsPmkwIsjMrGcKM_-s-17" value="" style="endArrow=none;html=1;rounded=0;exitX=0.5;exitY=0;exitDx=0;exitDy=0;entryX=0;entryY=0.5;entryDx=0;entryDy=0;" edge="1" parent="1" source="RpMsPmkwIsjMrGcKM_-s-14">
          <mxGeometry width="50" height="50" relative="1" as="geometry">
            <mxPoint x="490" y="640" as="sourcePoint" />
            <mxPoint x="560" y="640" as="targetPoint" />
          </mxGeometry>
        </mxCell>
        <mxCell id="RpMsPmkwIsjMrGcKM_-s-18" value="" style="endArrow=none;html=1;rounded=0;exitX=0.5;exitY=0;exitDx=0;exitDy=0;entryX=0.5;entryY=1;entryDx=0;entryDy=0;" edge="1" parent="1" source="RpMsPmkwIsjMrGcKM_-s-15" target="RpMsPmkwIsjMrGcKM_-s-12">
          <mxGeometry width="50" height="50" relative="1" as="geometry">
            <mxPoint x="492" y="688" as="sourcePoint" />
            <mxPoint x="570" y="650" as="targetPoint" />
          </mxGeometry>
        </mxCell>
        <mxCell id="RpMsPmkwIsjMrGcKM_-s-19" value="" style="endArrow=none;html=1;rounded=0;exitX=0.5;exitY=0;exitDx=0;exitDy=0;" edge="1" parent="1" source="RpMsPmkwIsjMrGcKM_-s-16">
          <mxGeometry width="50" height="50" relative="1" as="geometry">
            <mxPoint x="570" y="690" as="sourcePoint" />
            <mxPoint x="560" y="640" as="targetPoint" />
          </mxGeometry>
        </mxCell>
        <mxCell id="RpMsPmkwIsjMrGcKM_-s-22" value="postai cím" style="ellipse;whiteSpace=wrap;html=1;" vertex="1" parent="1">
          <mxGeometry x="640" y="680" width="70" height="40" as="geometry" />
        </mxCell>
        <mxCell id="RpMsPmkwIsjMrGcKM_-s-23" value="" style="endArrow=none;html=1;rounded=0;exitX=0.5;exitY=0;exitDx=0;exitDy=0;entryX=0.5;entryY=1;entryDx=0;entryDy=0;" edge="1" parent="1" source="RpMsPmkwIsjMrGcKM_-s-22" target="RpMsPmkwIsjMrGcKM_-s-12">
          <mxGeometry width="50" height="50" relative="1" as="geometry">
            <mxPoint x="605" y="690" as="sourcePoint" />
            <mxPoint x="570" y="650" as="targetPoint" />
          </mxGeometry>
        </mxCell>
        <mxCell id="RpMsPmkwIsjMrGcKM_-s-24" value="ir.szám" style="ellipse;whiteSpace=wrap;html=1;" vertex="1" parent="1">
          <mxGeometry x="560" y="760" width="70" height="40" as="geometry" />
        </mxCell>
        <mxCell id="RpMsPmkwIsjMrGcKM_-s-25" value="" style="endArrow=none;html=1;rounded=0;exitX=0.5;exitY=0;exitDx=0;exitDy=0;entryX=0.5;entryY=1;entryDx=0;entryDy=0;" edge="1" parent="1" source="RpMsPmkwIsjMrGcKM_-s-24" target="RpMsPmkwIsjMrGcKM_-s-22">
          <mxGeometry width="50" height="50" relative="1" as="geometry">
            <mxPoint x="725" y="770" as="sourcePoint" />
            <mxPoint x="660" y="740" as="targetPoint" />
          </mxGeometry>
        </mxCell>
        <mxCell id="RpMsPmkwIsjMrGcKM_-s-26" value="város" style="ellipse;whiteSpace=wrap;html=1;" vertex="1" parent="1">
          <mxGeometry x="640" y="760" width="70" height="40" as="geometry" />
        </mxCell>
        <mxCell id="RpMsPmkwIsjMrGcKM_-s-27" value="utca" style="ellipse;whiteSpace=wrap;html=1;" vertex="1" parent="1">
          <mxGeometry x="720" y="760" width="70" height="40" as="geometry" />
        </mxCell>
        <mxCell id="RpMsPmkwIsjMrGcKM_-s-28" value="" style="endArrow=none;html=1;rounded=0;exitX=0.5;exitY=0;exitDx=0;exitDy=0;entryX=0.5;entryY=1;entryDx=0;entryDy=0;" edge="1" parent="1" source="RpMsPmkwIsjMrGcKM_-s-26" target="RpMsPmkwIsjMrGcKM_-s-22">
          <mxGeometry width="50" height="50" relative="1" as="geometry">
            <mxPoint x="605" y="770" as="sourcePoint" />
            <mxPoint x="710" y="740" as="targetPoint" />
          </mxGeometry>
        </mxCell>
        <mxCell id="RpMsPmkwIsjMrGcKM_-s-29" value="" style="endArrow=none;html=1;rounded=0;exitX=0.5;exitY=0;exitDx=0;exitDy=0;entryX=0.5;entryY=1;entryDx=0;entryDy=0;" edge="1" parent="1" source="RpMsPmkwIsjMrGcKM_-s-27" target="RpMsPmkwIsjMrGcKM_-s-22">
          <mxGeometry width="50" height="50" relative="1" as="geometry">
            <mxPoint x="615" y="780" as="sourcePoint" />
            <mxPoint x="770" y="730" as="targetPoint" />
          </mxGeometry>
        </mxCell>
        <mxCell id="RpMsPmkwIsjMrGcKM_-s-30" value="Tkód" style="ellipse;whiteSpace=wrap;html=1;" vertex="1" parent="1">
          <mxGeometry x="40" y="595" width="87.5" height="50" as="geometry" />
        </mxCell>
        <mxCell id="RpMsPmkwIsjMrGcKM_-s-31" value="csom.egys." style="ellipse;whiteSpace=wrap;html=1;" vertex="1" parent="1">
          <mxGeometry x="49" y="599" width="70" height="40" as="geometry" />
        </mxCell>
        <mxCell id="RpMsPmkwIsjMrGcKM_-s-32" value="" style="endArrow=none;html=1;rounded=0;entryX=0;entryY=0.5;entryDx=0;entryDy=0;exitX=1;exitY=0.5;exitDx=0;exitDy=0;" edge="1" parent="1" source="RpMsPmkwIsjMrGcKM_-s-30" target="RpMsPmkwIsjMrGcKM_-s-1">
          <mxGeometry width="50" height="50" relative="1" as="geometry">
            <mxPoint x="140" y="640" as="sourcePoint" />
            <mxPoint x="202.5" y="580" as="targetPoint" />
          </mxGeometry>
        </mxCell>
        <mxCell id="RpMsPmkwIsjMrGcKM_-s-33" value="Alkatrész" style="rounded=0;whiteSpace=wrap;html=1;strokeWidth=2;fontStyle=1" vertex="1" parent="1">
          <mxGeometry x="79.5" y="430" width="80" height="40" as="geometry" />
        </mxCell>
        <mxCell id="RpMsPmkwIsjMrGcKM_-s-35" style="edgeStyle=orthogonalEdgeStyle;rounded=0;orthogonalLoop=1;jettySize=auto;html=1;entryX=0.5;entryY=1;entryDx=0;entryDy=0;endArrow=doubleBlock;startFill=0;endFill=1;" edge="1" parent="1" source="RpMsPmkwIsjMrGcKM_-s-34" target="RpMsPmkwIsjMrGcKM_-s-33">
          <mxGeometry relative="1" as="geometry" />
        </mxCell>
        <mxCell id="RpMsPmkwIsjMrGcKM_-s-36" style="rounded=0;orthogonalLoop=1;jettySize=auto;html=1;entryX=0.5;entryY=0;entryDx=0;entryDy=0;endArrow=doubleBlock;startFill=0;endFill=1;exitX=0.5;exitY=1;exitDx=0;exitDy=0;" edge="1" parent="1" source="RpMsPmkwIsjMrGcKM_-s-34" target="RpMsPmkwIsjMrGcKM_-s-1">
          <mxGeometry relative="1" as="geometry" />
        </mxCell>
        <mxCell id="RpMsPmkwIsjMrGcKM_-s-34" value="A-T" style="rhombus;whiteSpace=wrap;html=1;" vertex="1" parent="1">
          <mxGeometry x="89.5" y="500" width="60" height="60" as="geometry" />
        </mxCell>
        <mxCell id="RpMsPmkwIsjMrGcKM_-s-37" value="név" style="ellipse;whiteSpace=wrap;html=1;" vertex="1" parent="1">
          <mxGeometry x="124.5" y="350" width="70" height="40" as="geometry" />
        </mxCell>
        <mxCell id="RpMsPmkwIsjMrGcKM_-s-38" value="Akód" style="ellipse;whiteSpace=wrap;html=1;" vertex="1" parent="1">
          <mxGeometry x="44.5" y="350" width="70" height="40" as="geometry" />
        </mxCell>
        <mxCell id="RpMsPmkwIsjMrGcKM_-s-39" style="rounded=0;orthogonalLoop=1;jettySize=auto;html=1;entryX=0.5;entryY=0;entryDx=0;entryDy=0;endArrow=none;startFill=0;exitX=0.5;exitY=1;exitDx=0;exitDy=0;" edge="1" parent="1" source="RpMsPmkwIsjMrGcKM_-s-37" target="RpMsPmkwIsjMrGcKM_-s-33">
          <mxGeometry relative="1" as="geometry" />
        </mxCell>
        <mxCell id="RpMsPmkwIsjMrGcKM_-s-40" style="rounded=0;orthogonalLoop=1;jettySize=auto;html=1;exitX=0.5;exitY=1;exitDx=0;exitDy=0;entryX=0.5;entryY=0;entryDx=0;entryDy=0;endArrow=none;startFill=0;" edge="1" parent="1" source="RpMsPmkwIsjMrGcKM_-s-38" target="RpMsPmkwIsjMrGcKM_-s-33">
          <mxGeometry relative="1" as="geometry" />
        </mxCell>
        <mxCell id="RpMsPmkwIsjMrGcKM_-s-41" value="Rendelés" style="rounded=0;whiteSpace=wrap;html=1;strokeWidth=2;fontStyle=1" vertex="1" parent="1">
          <mxGeometry x="240.5" y="430" width="80" height="40" as="geometry" />
        </mxCell>
        <mxCell id="RpMsPmkwIsjMrGcKM_-s-42" style="edgeStyle=orthogonalEdgeStyle;rounded=0;orthogonalLoop=1;jettySize=auto;html=1;entryX=0.5;entryY=1;entryDx=0;entryDy=0;endArrow=doubleBlock;startFill=0;endFill=1;" edge="1" parent="1" source="RpMsPmkwIsjMrGcKM_-s-43" target="RpMsPmkwIsjMrGcKM_-s-41">
          <mxGeometry relative="1" as="geometry" />
        </mxCell>
        <mxCell id="RpMsPmkwIsjMrGcKM_-s-49" style="rounded=0;orthogonalLoop=1;jettySize=auto;html=1;entryX=0.5;entryY=0;entryDx=0;entryDy=0;endArrow=doubleBlock;endFill=1;exitX=0.5;exitY=1;exitDx=0;exitDy=0;" edge="1" parent="1" source="RpMsPmkwIsjMrGcKM_-s-43" target="RpMsPmkwIsjMrGcKM_-s-1">
          <mxGeometry relative="1" as="geometry" />
        </mxCell>
        <mxCell id="RpMsPmkwIsjMrGcKM_-s-43" value="R-T" style="rhombus;whiteSpace=wrap;html=1;" vertex="1" parent="1">
          <mxGeometry x="250.5" y="500" width="60" height="60" as="geometry" />
        </mxCell>
        <mxCell id="RpMsPmkwIsjMrGcKM_-s-44" value="ár" style="ellipse;whiteSpace=wrap;html=1;dashed=1;" vertex="1" parent="1">
          <mxGeometry x="358" y="500" width="70" height="40" as="geometry" />
        </mxCell>
        <mxCell id="RpMsPmkwIsjMrGcKM_-s-45" value="darabszám" style="ellipse;whiteSpace=wrap;html=1;" vertex="1" parent="1">
          <mxGeometry x="358" y="450" width="70" height="40" as="geometry" />
        </mxCell>
        <mxCell id="RpMsPmkwIsjMrGcKM_-s-46" style="rounded=0;orthogonalLoop=1;jettySize=auto;html=1;entryX=1;entryY=0.5;entryDx=0;entryDy=0;endArrow=none;startFill=0;exitX=0;exitY=0.5;exitDx=0;exitDy=0;" edge="1" parent="1" source="RpMsPmkwIsjMrGcKM_-s-44" target="RpMsPmkwIsjMrGcKM_-s-41">
          <mxGeometry relative="1" as="geometry" />
        </mxCell>
        <mxCell id="RpMsPmkwIsjMrGcKM_-s-47" style="rounded=0;orthogonalLoop=1;jettySize=auto;html=1;exitX=0;exitY=0.5;exitDx=0;exitDy=0;entryX=1;entryY=0.5;entryDx=0;entryDy=0;endArrow=none;startFill=0;" edge="1" parent="1" source="RpMsPmkwIsjMrGcKM_-s-45" target="RpMsPmkwIsjMrGcKM_-s-41">
          <mxGeometry relative="1" as="geometry" />
        </mxCell>
        <mxCell id="RpMsPmkwIsjMrGcKM_-s-51" value="dátum" style="ellipse;whiteSpace=wrap;html=1;" vertex="1" parent="1">
          <mxGeometry x="357.5" y="400" width="70" height="40" as="geometry" />
        </mxCell>
        <mxCell id="RpMsPmkwIsjMrGcKM_-s-52" value="Rkód" style="ellipse;whiteSpace=wrap;html=1;" vertex="1" parent="1">
          <mxGeometry x="357.5" y="350" width="70" height="40" as="geometry" />
        </mxCell>
        <mxCell id="RpMsPmkwIsjMrGcKM_-s-53" style="rounded=0;orthogonalLoop=1;jettySize=auto;html=1;entryX=1;entryY=0.5;entryDx=0;entryDy=0;endArrow=none;startFill=0;exitX=0;exitY=0.5;exitDx=0;exitDy=0;" edge="1" parent="1" source="RpMsPmkwIsjMrGcKM_-s-51" target="RpMsPmkwIsjMrGcKM_-s-41">
          <mxGeometry relative="1" as="geometry">
            <mxPoint x="320.5" y="350" as="targetPoint" />
          </mxGeometry>
        </mxCell>
        <mxCell id="RpMsPmkwIsjMrGcKM_-s-54" style="rounded=0;orthogonalLoop=1;jettySize=auto;html=1;entryX=1;entryY=0.5;entryDx=0;entryDy=0;endArrow=none;startFill=0;exitX=0;exitY=0.5;exitDx=0;exitDy=0;" edge="1" parent="1" source="RpMsPmkwIsjMrGcKM_-s-52" target="RpMsPmkwIsjMrGcKM_-s-41">
          <mxGeometry relative="1" as="geometry">
            <mxPoint x="331" y="460" as="targetPoint" />
            <mxPoint x="367" y="410" as="sourcePoint" />
          </mxGeometry>
        </mxCell>
        <mxCell id="RpMsPmkwIsjMrGcKM_-s-58" style="rounded=0;orthogonalLoop=1;jettySize=auto;html=1;entryX=0.5;entryY=1;entryDx=0;entryDy=0;" edge="1" parent="1" source="RpMsPmkwIsjMrGcKM_-s-55" target="RpMsPmkwIsjMrGcKM_-s-57">
          <mxGeometry relative="1" as="geometry">
            <mxPoint x="280.5" y="320" as="sourcePoint" />
          </mxGeometry>
        </mxCell>
        <mxCell id="RpMsPmkwIsjMrGcKM_-s-59" value="" style="rounded=0;orthogonalLoop=1;jettySize=auto;html=1;endArrow=doubleBlock;endFill=1;" edge="1" parent="1" source="RpMsPmkwIsjMrGcKM_-s-55" target="RpMsPmkwIsjMrGcKM_-s-41">
          <mxGeometry relative="1" as="geometry" />
        </mxCell>
        <mxCell id="RpMsPmkwIsjMrGcKM_-s-55" value="V-R" style="rhombus;whiteSpace=wrap;html=1;" vertex="1" parent="1">
          <mxGeometry x="250.5" y="320" width="60" height="60" as="geometry" />
        </mxCell>
        <mxCell id="RpMsPmkwIsjMrGcKM_-s-57" value="Vevő" style="rounded=0;whiteSpace=wrap;html=1;strokeWidth=2;fontStyle=1" vertex="1" parent="1">
          <mxGeometry x="240.5" y="240" width="80" height="40" as="geometry" />
        </mxCell>
        <mxCell id="RpMsPmkwIsjMrGcKM_-s-61" style="rounded=0;orthogonalLoop=1;jettySize=auto;html=1;entryX=0.5;entryY=0;entryDx=0;entryDy=0;endArrow=none;startFill=0;" edge="1" parent="1" source="RpMsPmkwIsjMrGcKM_-s-60" target="RpMsPmkwIsjMrGcKM_-s-57">
          <mxGeometry relative="1" as="geometry" />
        </mxCell>
        <mxCell id="RpMsPmkwIsjMrGcKM_-s-60" value="név" style="ellipse;whiteSpace=wrap;html=1;" vertex="1" parent="1">
          <mxGeometry x="245.5" y="160" width="70" height="40" as="geometry" />
        </mxCell>
        <mxCell id="RpMsPmkwIsjMrGcKM_-s-64" style="rounded=0;orthogonalLoop=1;jettySize=auto;html=1;entryX=0.5;entryY=0;entryDx=0;entryDy=0;endArrow=none;startFill=0;exitX=0.5;exitY=1;exitDx=0;exitDy=0;" edge="1" parent="1" source="RpMsPmkwIsjMrGcKM_-s-62" target="RpMsPmkwIsjMrGcKM_-s-57">
          <mxGeometry relative="1" as="geometry" />
        </mxCell>
        <mxCell id="RpMsPmkwIsjMrGcKM_-s-62" value="Vkód" style="ellipse;whiteSpace=wrap;html=1;" vertex="1" parent="1">
          <mxGeometry x="170.5" y="160" width="70" height="40" as="geometry" />
        </mxCell>
        <mxCell id="RpMsPmkwIsjMrGcKM_-s-65" style="rounded=0;orthogonalLoop=1;jettySize=auto;html=1;entryX=0.5;entryY=0;entryDx=0;entryDy=0;endArrow=none;startFill=0;exitX=0.5;exitY=1;exitDx=0;exitDy=0;" edge="1" parent="1" source="RpMsPmkwIsjMrGcKM_-s-63" target="RpMsPmkwIsjMrGcKM_-s-57">
          <mxGeometry relative="1" as="geometry" />
        </mxCell>
        <mxCell id="RpMsPmkwIsjMrGcKM_-s-63" value="lakcím" style="ellipse;whiteSpace=wrap;html=1;" vertex="1" parent="1">
          <mxGeometry x="320.5" y="160" width="70" height="40" as="geometry" />
        </mxCell>
        <mxCell id="RpMsPmkwIsjMrGcKM_-s-70" style="rounded=0;orthogonalLoop=1;jettySize=auto;html=1;entryX=0.5;entryY=0;entryDx=0;entryDy=0;exitX=0.5;exitY=1;exitDx=0;exitDy=0;endArrow=none;startFill=0;" edge="1" parent="1" source="RpMsPmkwIsjMrGcKM_-s-67" target="RpMsPmkwIsjMrGcKM_-s-63">
          <mxGeometry relative="1" as="geometry" />
        </mxCell>
        <mxCell id="RpMsPmkwIsjMrGcKM_-s-67" value="ir.szám" style="ellipse;whiteSpace=wrap;html=1;" vertex="1" parent="1">
          <mxGeometry x="240.5" y="80" width="70" height="40" as="geometry" />
        </mxCell>
        <mxCell id="RpMsPmkwIsjMrGcKM_-s-71" style="edgeStyle=orthogonalEdgeStyle;rounded=0;orthogonalLoop=1;jettySize=auto;html=1;entryX=0.5;entryY=0;entryDx=0;entryDy=0;endArrow=none;startFill=0;" edge="1" parent="1" source="RpMsPmkwIsjMrGcKM_-s-68" target="RpMsPmkwIsjMrGcKM_-s-63">
          <mxGeometry relative="1" as="geometry" />
        </mxCell>
        <mxCell id="RpMsPmkwIsjMrGcKM_-s-68" value="város" style="ellipse;whiteSpace=wrap;html=1;" vertex="1" parent="1">
          <mxGeometry x="320.5" y="80" width="70" height="40" as="geometry" />
        </mxCell>
        <mxCell id="RpMsPmkwIsjMrGcKM_-s-72" style="rounded=0;orthogonalLoop=1;jettySize=auto;html=1;entryX=0.5;entryY=0;entryDx=0;entryDy=0;exitX=0.5;exitY=1;exitDx=0;exitDy=0;endArrow=none;startFill=0;" edge="1" parent="1" source="RpMsPmkwIsjMrGcKM_-s-69" target="RpMsPmkwIsjMrGcKM_-s-63">
          <mxGeometry relative="1" as="geometry" />
        </mxCell>
        <mxCell id="RpMsPmkwIsjMrGcKM_-s-69" value="utca" style="ellipse;whiteSpace=wrap;html=1;" vertex="1" parent="1">
          <mxGeometry x="400.5" y="80" width="70" height="40" as="geometry" />
        </mxCell>
      </root>
    </mxGraphModel>
  </diagram>
</mxfile>
